<?xml version="1.0" encoding="utf-8"?>
<!-- Generator: Adobe Illustrator 24.0.0, SVG Export Plug-In . SVG Version: 6.00 Build 0)  -->
<svg version="1.1" id="Layer_1" xmlns="http://www.w3.org/2000/svg" xmlns:xlink="http://www.w3.org/1999/xlink" x="0px" y="0px"
     viewBox="0 0 700 104.531" style="enable-background:new 0 0 700 104.531;" xml:space="preserve">
<style type="text/css">
	.st0{fill:#1F3D73;}
	.st1{fill:#C7C8C9;}
	.st2{fill:#00A55E;}
	.st3{fill:#003876;}
	.st4{fill:#01A65D;}
</style>
  <g>
	<g>
		<rect x="453.217" y="26.879" class="st0" width="1.867" height="77.652"/>
	</g>
    <g>
		<g>
			<path class="st1" d="M110.131,58.612L16.426,37.706c0,0-12.32,13.813,9.333,15.68l83.625,6.347
				C109.384,59.359,109.758,58.985,110.131,58.612"/>
		</g>
      <g>
			<path class="st1" d="M117.224,53.759L48.532,16.426c0,0-17.546,8.96,0.747,15.68l67.199,22.4
				C116.851,54.132,116.851,53.759,117.224,53.759"/>
		</g>
      <g>
			<path class="st1" d="M127.304,51.519L90.345,3.733c0,0-17.546,4.107-7.093,12.693l42.932,35.093
				C126.557,51.892,126.931,51.892,127.304,51.519"/>
		</g>
      <g>
			<path class="st1" d="M134.397,51.519c0.373,0,0.747,0,1.12,0V0c0,0-17.173,0.373-13.44,11.946L134.397,51.519z"/>
		</g>
      <g>
			<path class="st1" d="M142.61,51.892L179.57,4.107c0,0-17.173-5.6-20.533,4.107L141.49,51.892
				C141.864,51.892,142.237,51.892,142.61,51.892"/>
		</g>
      <g>
			<path class="st1" d="M185.543,78.025c3.36-0.747,6.347-0.747,8.96-1.12c2.613,0,7.467,0.373,7.467,0.373
				c-2.613-5.227-4.48-8.96-8.213-10.453c-1.493-0.747-7.467-1.12-8.586-1.12c-3.36-2.987-6.347-3.36-7.84-3.36s-13.066,0-13.066,0
				H1.12C0.373,64.212,0,66.079,0,67.945c0,1.12,0,2.987,0.747,4.48c1.12,1.867,2.613,2.987,4.107,3.733
				c1.493,0.747,3.36,1.493,5.6,1.493c2.24,0.373,7.093,0.373,8.96,0.373c1.867,0,13.066-1.493,13.066-1.493l19.786-2.613
				l14.186-1.867c0,0,13.44-1.867,15.306-1.867c5.973-0.747,13.066-1.493,13.066-1.493s11.946-1.493,12.693-1.493
				c2.613,6.347,6.72,8.586,15.306,11.2c-0.373,0.373-15.306,20.16-16.053,20.906c-0.747,0.747-1.867,2.987-0.373,4.107
				c1.493,1.493,3.733,0.373,5.227,0c1.12-0.373,13.066-3.733,13.066-3.733S184.423,78.398,185.543,78.025"/>
		</g>
	</g>
    <g>
		<path class="st2" d="M390.776,40.617c-2.572-1.423-4.578-2.051-7.944-2.051c-5.988,0-10.646,3.626-10.646,9.966
			c0,5.83,5.396,9.82,11.434,9.82c3.165,0,5.816-0.628,8.159-1.769l-1.078,4.653c-2.577,0.722-5.598,1.174-8.272,1.174
			c-9.648,0-17.058-5.083-17.058-13.877c0-8.866,7.409-14.003,17.058-14.003c3.05,0,5.695,0.455,8.018,1.473L390.776,40.617z"/>
      <path class="st2" d="M394.129,48.531c0-8.868,7.379-14.003,17.068-14.003c9.647,0,17.066,5.135,17.066,14.003
			c0,8.794-7.419,13.877-17.066,13.877C401.508,62.408,394.129,57.325,394.129,48.531 M421.146,48.531
			c0-5.498-2.877-10.395-9.95-10.395c-7.082,0-9.951,4.897-9.951,10.395c0,5.407,2.869,10.228,9.951,10.228
			C418.27,58.759,421.146,53.938,421.146,48.531"/>
      <polygon class="st3" points="215.094,26.196 242.671,26.196 242.671,32.917 225.521,32.917 225.521,40.255 241.701,40.255
			241.701,46.977 225.521,46.977 225.521,55.05 243.302,55.05 243.302,61.78 215.094,61.78 		"/>
      <path class="st3" d="M330.963,42.552c-1.123-0.303-2.532-0.303-3.696-0.303c-4.691,0-7.343,3.134-7.343,8.314V61.78h-10.09V35.193
			h9.21v4.918h0.065c1.755-3.353,4.292-5.515,8.651-5.515c1.198,0,2.156,0.144,3.204,0.262V42.552z"/>
      <path class="st3" d="M352.42,61.78c-0.074-1.416-0.253-2.815-0.253-4.185h-0.073c-2.31,3.322-5.15,4.813-9.284,4.813
			c-5.783,0-10.913-2.271-10.913-8.023c0-8.144,9.686-9.467,15.047-9.467c1.607,0,3.469,0.183,4.743,0.395
			c-0.044-3.639-3.066-4.589-6.717-4.589c-3.228,0-6.56,0.533-9.349,2.012v-6.237c3.576-1.305,7.254-1.902,11.546-1.902
			c7.494,0,13.938,2.912,13.938,11.011v9.911c0,2.077,0.073,4.196,0.596,6.262H352.42z M345.459,56.263
			c3.796,0,6.229-3.142,6.229-6.26c-1.274-0.053-2.731-0.167-4.288-0.167c-3.39,0-6.079,0.97-6.079,3.526
			C341.321,55.199,343.118,56.263,345.459,56.263"/>
      <path class="st3" d="M282.049,35.193h6.004v-5.915h9.873v5.915h7.073v6.445h-7.073v9.786c0,3.197,0.85,4.839,4.062,4.839
			c1.004,0,2.09-0.188,3.095-0.345l0.287,5.97c-1.854,0.183-3.793,0.521-6.325,0.521c-8.983,0-11.22-3.649-11.22-9.948V41.638
			h-5.776V35.193z"/>
      <polygon class="st3" points="282.608,61.779 269.156,48.295 282.31,35.193 270.205,35.193 263.486,42.441 256.745,35.193
			244.679,35.193 257.84,48.295 244.272,61.779 256.376,61.779 263.486,54.135 270.53,61.779 		"/>
      <path class="st3" d="M215.149,70.611h6.974c4.8,0,9.308,1.509,9.308,6.636c0,3.322-1.752,5.394-5.365,6.011v0.086
			c3.686,0.61,6.224,2.82,6.224,6.362c0,5.786-5.219,7.596-11.327,7.596h-5.815V70.611z M218.059,94.975h3.011
			c3.88,0,8.31-0.929,8.31-5.174c0-4.738-4.47-5.221-8.782-5.221h-2.538V94.975z M218.134,82.259h3.234
			c3.058,0,7.159-0.693,7.159-4.92c0-3.879-3.942-4.423-6.404-4.423h-3.989V82.259z"/>
      <path class="st3" d="M249.047,94.187h-0.071c-1.19,2.315-4.18,3.561-6.83,3.561c-6.108,0-7.079-3.744-7.079-5.493
			c0-6.539,7.643-6.814,13.237-6.814h0.481v-1.046c0-3.278-1.302-4.957-4.842-4.957c-2.273,0-4.363,0.455-6.343,1.585v-2.328
			c1.638-0.714,4.437-1.332,6.343-1.332c5.25,0,7.523,2.147,7.523,7.235v8.624c0,1.561,0,2.742,0.183,4.079h-2.602V94.187z
			 M248.785,87.488h-0.741c-4.593,0-10.071,0.427-10.071,4.688c0,2.551,2.022,3.503,4.476,3.503c6.228,0,6.336-4.92,6.336-7.019
			V87.488z"/>
      <path class="st3" d="M256.672,82.402c0-1.51,0-3.037-0.225-4.609h2.601v3.472h0.076c0.855-1.755,2.467-3.901,6.935-3.901
			c5.284,0,7.299,3.192,7.299,7.492v12.444h-2.652V85.459c0-3.65-1.451-6.019-5.061-6.019c-4.839,0-6.37,3.817-6.37,7.1v10.76
			h-2.605V82.402z"/>
      <polygon class="st3" points="278.242,68.653 280.926,68.653 280.926,85.81 290.506,77.793 293.93,77.793 283.424,86.464
			295.191,97.3 291.51,97.3 280.926,87.277 280.926,97.3 278.242,97.3 		"/>
      <path class="st3" d="M297.11,94.469c1.598,0.733,3.578,1.209,5.617,1.209c2.535,0,4.735-1.242,4.735-3.479
			c0-4.583-10.319-3.893-10.319-9.55c0-3.848,3.464-5.286,7.044-5.286c1.107,0,3.345,0.233,5.255,0.856l-0.27,2.119
			c-1.336-0.567-3.277-0.9-4.716-0.9c-2.731,0-4.628,0.722-4.628,3.21c0,3.639,10.537,3.171,10.537,9.55
			c0,4.135-4.24,5.548-7.487,5.548c-2.048,0-4.12-0.24-6.004-0.874L297.11,94.469z"/>
      <path class="st3" d="M314.096,93.714c0-1.726,1.261-3.005,2.907-3.005c1.564,0,2.87,1.279,2.87,3.005
			c0,1.726-1.306,2.998-2.87,2.998C315.357,96.712,314.096,95.44,314.096,93.714 M317.003,97.301c1.933,0,3.574-1.53,3.574-3.587
			c0-2.074-1.642-3.599-3.574-3.599c-1.975,0-3.615,1.525-3.615,3.599C313.389,95.771,315.028,97.301,317.003,97.301
			 M316.222,94.005h0.748l1.073,1.766h0.707l-1.149-1.823c0.596-0.058,1.043-0.41,1.043-1.132c0-0.829-0.447-1.177-1.451-1.177
			h-1.569v4.131h0.597V94.005z M316.222,93.442v-1.264h0.892c0.369,0,0.855,0.079,0.855,0.617c0,0.614-0.486,0.648-0.999,0.648
			H316.222z"/>
	</g>
    <g>
		<path class="st4" d="M480.875,58.799V35.346h3.361v20.496h9.811v2.957H480.875z"/>
      <path class="st4" d="M509.939,54.934v3.157c-2.038,0.74-3.843,1.108-5.41,1.108c-2.957,0-5.195-0.849-6.719-2.552
			c-1.436-1.59-2.151-3.83-2.151-6.719c0-2.554,0.74-4.637,2.217-6.249c1.48-1.613,3.416-2.421,5.815-2.421
			c5.038,0,7.558,3.226,7.558,9.678H499.02c0,1.657,0.569,3.035,1.714,4.132c1.072,1.054,2.384,1.579,3.93,1.579
			c0.941,0,1.983-0.201,3.124-0.605C508.773,55.685,509.491,55.315,509.939,54.934z M499.02,48.585h8.87
			c0-1.367-0.383-2.505-1.145-3.411c-0.762-0.908-1.801-1.362-3.124-1.362c-1.411,0-2.53,0.516-3.358,1.546
			C499.567,46.21,499.152,47.285,499.02,48.585z"/>
      <path class="st4" d="M524.016,41.664v2.554h-4.535v9.373c0,0.964,0.252,1.714,0.755,2.251c0.503,0.536,1.138,0.806,1.899,0.806
			c0.806,0,1.524-0.201,2.151-0.605v2.687c-1.097,0.314-1.994,0.47-2.691,0.47c-3.515,0-5.272-1.655-5.272-4.971V44.218h-3.865
			v-2.554h3.865v-3.965l3.157-1.008v4.973H524.016z"/>
      <path class="st4" d="M526.4,43.578l2.085-8.232h3.762l-2.957,8.232H526.4z"/>
      <path class="st4" d="M534.632,58.259l0.168-2.82c1.254,0.804,2.567,1.209,3.93,1.209c0.853,0,1.568-0.179,2.151-0.54
			c0.718-0.423,1.076-1.061,1.076-1.912c0-0.829-0.638-1.602-1.914-2.319c-1.189-0.627-2.388-1.265-3.595-1.916
			c-1.28-0.917-1.918-2.06-1.918-3.427c0-1.701,0.583-3.024,1.75-3.965c1.072-0.873,2.508-1.311,4.298-1.311
			c1.119,0,2.432,0.224,3.93,0.673l-0.266,2.756c-0.335-0.202-0.875-0.397-1.615-0.589c-0.736-0.19-1.309-0.286-1.714-0.286
			c-0.849,0-1.568,0.18-2.147,0.538c-0.583,0.359-0.875,0.873-0.875,1.546c0,0.941,0.638,1.737,1.914,2.386
			c1.189,0.627,2.388,1.243,3.595,1.848c1.28,0.919,1.918,2.162,1.918,3.728c0,1.726-0.616,3.07-1.848,4.032
			c-1.097,0.875-2.475,1.309-4.134,1.309C537.366,59.2,535.795,58.886,534.632,58.259z"/>
      <path class="st4" d="M557.382,58.799V35.346h6.351c5.487,0,8.232,1.972,8.232,5.913c0,2.913-1.615,4.772-4.838,5.578v0.067
			c1.633,0.135,2.949,0.705,3.945,1.714c0.999,1.008,1.498,2.319,1.498,3.932c0,4.163-2.982,6.249-8.939,6.249H557.382z
			 M560.743,38.102v7.257h1.845c1.972,0,3.383-0.19,4.236-0.571c1.185-0.56,1.779-1.624,1.779-3.192c0-2.33-1.444-3.494-4.335-3.494
			H560.743z M560.743,48.115v7.928h2.519c3.828,0,5.746-1.265,5.746-3.795c0-2.756-2.027-4.132-6.081-4.132H560.743z"/>
      <path class="st4" d="M592.359,41.664v17.135H589.3v-2.723h-0.066c-0.47,0.962-1.221,1.724-2.253,2.286
			c-1.032,0.558-2.151,0.839-3.358,0.839c-4.28,0-6.42-2.45-6.42-7.355V41.664h3.161v8.87c0,2.084,0.255,3.595,0.773,4.535
			c0.558,1.006,1.509,1.535,2.855,1.579c1.724,0.044,3.044-0.594,3.963-1.914c0.831-1.232,1.243-2.946,1.243-5.141v-7.93H592.359z"
      />
      <path class="st4" d="M600.89,34.272v3.56h-3.558v-3.56H600.89z M597.532,58.799V41.664h3.157v17.135H597.532z"/>
      <path class="st4" d="M606.268,58.799V33.599h3.157v25.199H606.268z"/>
      <path class="st4" d="M626.76,58.799v-2.421h-0.131c-1.229,1.881-3.165,2.822-5.819,2.822c-2.406,0-4.266-0.962-5.582-2.887
			c-1.159-1.681-1.739-3.808-1.739-6.384c0-2.465,0.62-4.481,1.859-6.048c1.327-1.746,3.183-2.621,5.571-2.621
			c2.658,0,4.561,0.919,5.709,2.756V33.599h3.157v25.199H626.76z M616.851,50.164c0,1.591,0.368,3.013,1.108,4.267
			c0.871,1.478,2.082,2.217,3.628,2.217c1.637,0,2.924-0.705,3.865-2.116c0.784-1.209,1.178-2.632,1.178-4.267
			c0-1.746-0.416-3.225-1.243-4.435c-0.941-1.343-2.22-2.016-3.832-2.016c-1.59,0-2.8,0.673-3.628,2.016
			C617.208,46.95,616.851,48.394,616.851,50.164z"/>
      <path class="st4" d="M492.031,73.116l-0.47,3.092c-1.659-0.649-3.124-0.977-4.404-0.977c-2.731,0-4.098,1.043-4.098,3.124
			c0,1.189,0.875,2.253,2.621,3.194c3.022,1.611,4.637,2.497,4.838,2.654c1.746,1.345,2.621,3.124,2.621,5.341
			c0,2.377-0.842,4.167-2.519,5.377c-1.502,1.076-3.518,1.611-6.048,1.611c-1.21,0-2.811-0.324-4.805-0.973l0.335-3.124
			c1.859,0.762,3.482,1.141,4.871,1.141c1.145,0,2.151-0.288,3.026-0.871c1.054-0.718,1.579-1.703,1.579-2.957
			c0-1.411-0.875-2.61-2.621-3.595c-1.611-0.853-3.226-1.703-4.838-2.556c-1.746-1.232-2.621-2.877-2.621-4.94
			c0-2.016,0.729-3.606,2.184-4.769c1.367-1.076,3.146-1.615,5.345-1.615C488.772,72.273,490.438,72.554,492.031,73.116z"/>
      <path class="st4" d="M495.659,87.564c0-2.621,0.806-4.772,2.417-6.453c1.615-1.681,3.719-2.519,6.318-2.519
			c2.578,0,4.67,0.839,6.282,2.519c1.615,1.681,2.421,3.832,2.421,6.453c0,2.508-0.806,4.612-2.421,6.314
			c-1.655,1.772-3.751,2.654-6.282,2.654c-2.53,0-4.637-0.882-6.318-2.654C496.465,92.176,495.659,90.072,495.659,87.564z
			 M499.02,87.564c0,1.703,0.423,3.157,1.276,4.368c0.984,1.367,2.352,2.049,4.098,2.049c1.724,0,3.081-0.682,4.065-2.049
			c0.853-1.21,1.276-2.665,1.276-4.368c0-1.724-0.47-3.205-1.411-4.437c-1.006-1.32-2.319-1.983-3.93-1.983
			c-1.611,0-2.935,0.664-3.963,1.983C499.491,84.359,499.02,85.839,499.02,87.564z"/>
      <path class="st4" d="M516.691,96.131V78.996h2.957v2.486h0.069c1.163-1.929,2.979-2.891,5.439-2.891
			c2.377,0,3.999,1.108,4.874,3.325c0.536-1.119,1.378-1.98,2.519-2.585c0.919-0.492,1.848-0.74,2.789-0.74
			c3.963,0,5.946,2.184,5.946,6.551v10.988h-3.157V85.916c0-3.179-1.021-4.772-3.059-4.772c-1.498,0-2.654,0.664-3.46,1.983
			c-0.696,1.145-1.043,2.599-1.043,4.368v8.637h-3.157V85.916c0-3.179-1.021-4.772-3.059-4.772c-1.498,0-2.654,0.664-3.46,1.983
			c-0.693,1.145-1.043,2.599-1.043,4.368v8.637H516.691z"/>
      <path class="st4" d="M559.128,92.267v3.157c-2.038,0.74-3.843,1.108-5.41,1.108c-2.957,0-5.195-0.849-6.719-2.552
			c-1.436-1.59-2.151-3.832-2.151-6.719c0-2.556,0.74-4.637,2.217-6.249c1.48-1.615,3.416-2.421,5.815-2.421
			c5.038,0,7.558,3.226,7.558,9.676h-12.228c0,1.659,0.569,3.037,1.714,4.134c1.072,1.054,2.384,1.579,3.93,1.579
			c0.941,0,1.983-0.201,3.124-0.605C557.961,93.018,558.68,92.646,559.128,92.267z M548.209,85.916h8.87
			c0-1.367-0.383-2.505-1.145-3.409c-0.762-0.908-1.801-1.364-3.124-1.364c-1.411,0-2.53,0.518-3.358,1.546
			C548.756,83.543,548.34,84.618,548.209,85.916z"/>
      <path class="st4" d="M572.905,96.131V72.678h6.92c3.584,0,6.541,1.021,8.87,3.059c2.421,2.125,3.631,4.951,3.631,8.465
			c0,3.875-1.105,6.832-3.31,8.87s-5.268,3.059-9.191,3.059H572.905z M576.267,75.635v17.54h3.525c5.983,0,8.972-2.946,8.972-8.837
			c0-2.665-0.817-4.805-2.454-6.417c-1.59-1.524-3.628-2.286-6.114-2.286H576.267z"/>
      <path class="st4" d="M596.253,96.131V78.996h2.957v2.654h0.069c0.423-0.897,1.05-1.63,1.881-2.202
			c0.828-0.572,1.692-0.857,2.585-0.857c0.605,0,1.302,0.08,2.085,0.237v2.822c-0.492-0.204-1.076-0.303-1.746-0.303
			c-1.411,0-2.545,0.627-3.394,1.881c-0.853,1.254-1.276,2.957-1.276,5.108v7.795H596.253z"/>
      <path class="st4" d="M621.656,92.267v3.157c-2.038,0.74-3.843,1.108-5.41,1.108c-2.957,0-5.195-0.849-6.719-2.552
			c-1.436-1.59-2.151-3.832-2.151-6.719c0-2.556,0.74-4.637,2.217-6.249c1.48-1.615,3.416-2.421,5.815-2.421
			c5.038,0,7.558,3.226,7.558,9.676h-12.228c0,1.659,0.569,3.037,1.714,4.134c1.072,1.054,2.384,1.579,3.93,1.579
			c0.941,0,1.983-0.201,3.124-0.605C620.49,93.018,621.208,92.646,621.656,92.267z M610.737,85.916h8.87
			c0-1.367-0.383-2.505-1.145-3.409c-0.762-0.908-1.801-1.364-3.124-1.364c-1.411,0-2.53,0.518-3.358,1.546
			C611.284,83.543,610.869,84.618,610.737,85.916z"/>
      <path class="st4" d="M627.402,82.894l-0.168-2.691c1.812-1.076,3.693-1.611,5.644-1.611c2.395,0,4.145,0.587,5.243,1.765
			c1.097,1.174,1.644,2.949,1.644,5.326v7.087c0,1.568,0.044,2.687,0.135,3.361h-2.957v-2.22h-0.066
			c-1.232,1.75-3.004,2.621-5.308,2.621c-1.929,0-3.442-0.423-4.539-1.276c-1.163-0.919-1.746-2.271-1.746-4.065
			c0-1.95,0.919-3.427,2.756-4.437c1.455-0.806,3.19-1.207,5.206-1.207c1.411,0,2.534,0,3.361,0c0-1.502-0.321-2.61-0.959-3.329
			c-0.638-0.715-1.728-1.076-3.274-1.076C630.446,81.144,628.791,81.727,627.402,82.894z M636.608,89.478v-1.513
			c-0.226,0-0.561-0.011-1.01-0.033s-0.784-0.033-1.006-0.033c-3.967,0-5.946,1.097-5.946,3.292c0,0.853,0.346,1.546,1.039,2.082
			c0.627,0.47,1.345,0.707,2.151,0.707c1.524,0,2.712-0.437,3.562-1.309C636.203,91.862,636.608,90.801,636.608,89.478z"/>
      <path class="st4" d="M644.234,96.131V78.996h2.957v2.486h0.069c1.163-1.929,2.979-2.891,5.439-2.891
			c2.377,0,3.999,1.108,4.874,3.325c0.536-1.119,1.378-1.98,2.519-2.585c0.919-0.492,1.848-0.74,2.789-0.74
			c3.963,0,5.946,2.184,5.946,6.551v10.988h-3.157V85.916c0-3.179-1.021-4.772-3.059-4.772c-1.498,0-2.654,0.664-3.46,1.983
			c-0.696,1.145-1.043,2.599-1.043,4.368v8.637h-3.157V85.916c0-3.179-1.021-4.772-3.059-4.772c-1.498,0-2.654,0.664-3.46,1.983
			c-0.693,1.145-1.043,2.599-1.043,4.368v8.637H644.234z"/>
      <path class="st4" d="M671.888,95.592l0.168-2.822c1.254,0.806,2.567,1.21,3.93,1.21c0.853,0,1.568-0.179,2.151-0.54
			c0.718-0.423,1.076-1.061,1.076-1.914c0-0.828-0.638-1.6-1.914-2.319c-1.188-0.627-2.388-1.265-3.595-1.914
			c-1.28-0.919-1.918-2.06-1.918-3.427c0-1.703,0.583-3.026,1.75-3.967c1.072-0.871,2.508-1.309,4.298-1.309
			c1.119,0,2.432,0.222,3.93,0.671l-0.266,2.756c-0.335-0.201-0.875-0.397-1.615-0.587c-0.736-0.19-1.309-0.288-1.714-0.288
			c-0.849,0-1.568,0.182-2.147,0.54c-0.583,0.357-0.875,0.871-0.875,1.546c0,0.941,0.638,1.735,1.914,2.384
			c1.188,0.627,2.388,1.243,3.595,1.848c1.28,0.919,1.918,2.162,1.918,3.73c0,1.724-0.616,3.07-1.848,4.032
			c-1.097,0.875-2.475,1.309-4.134,1.309C674.622,96.532,673.051,96.219,671.888,95.592z"/>
	</g>
    <g>
		<path class="st4" d="M687.032,87.09v-6.832h-2.428V79.27h5.979v0.988h-2.428v6.832H687.032z"/>
      <path class="st4" d="M691.443,87.09v-7.82h1.848l2.454,6.497l2.41-6.497H700v7.82h-1.119v-6.767l-2.603,6.767h-1.108l-2.603-6.767
			v6.767H691.443z"/>
	</g>
</g>
</svg>
