
<svg xmlns="http://www.w3.org/2000/svg" viewBox="0 0 219.99 66.77">
  <path d="M58.82 27.59l2.45-.11 2-5h-15l-2 4.93 2 .17c-1.86 4.59-3.67 9.01-5.48 13.42h-3.33L47 22.59H34.18l-2 4.93 2.42.12-.6 1.51q-2.36 5.74-4.69 11.49c-1.36 3.35-.77 4.91 2.26 5.44a24.73 24.73 0 004.55.2 7.8 7.8 0 006.33-2.81c-.37.92-.75 1.84-1.12 2.75h12.31c.7-1.7 1.36-3.33 2.07-5.07H53.3c1.86-4.6 3.7-9.05 5.52-13.56zM162.88 39.35c1.58-3.87 3.18-7.75 4.75-11.63 1.26-3.12.63-4.77-2.23-5.29a23.36 23.36 0 00-4.18-.17c-2.32 0-4.65.27-6.85 2.87.38-.93.77-1.87 1.15-2.81h-12.27c-.69 1.7-1.35 3.32-2 5l2.34.12-5.49 13.44-2.46.15c-.7 1.7-1.37 3.33-2.05 5h14.94c.69-1.7 1.35-3.32 2-5l-1.93-.15 5.48-13.41h3.29l-3.82 9.36-3.77 9.17h12.86l2.1-5.13h-2.48l.62-1.53zM81.53 41.06c.15-.46.25-.79.38-1.13 1.4-3.44 2.85-6.88 4.19-10.32 1.67-4.31.79-6.68-3.18-7a63.82 63.82 0 00-11.23 0c-4.35.39-7.29 3.26-8.22 7.56h8.71l1-2.54h3.27c-.7 1.71-1.37 3.34-2.08 5.1-2.17-1.25-5-.92-7.77-.81a8.24 8.24 0 00-6.89 4.69c-.78 1.69-1.47 3.4-2.07 5.09s-.61 3.4 1 3.87a23.18 23.18 0 005.56.67 8.58 8.58 0 006.31-2.45c-.39 1-.67 1.65-1 2.39h12.33l2.07-5.08zM71 41.15h-3.21c.65-1.59 1.31-3.2 2-4.88H73zM131.36 39.87c1.42-3.48 2.9-7 4.24-10.45 1.64-4.23.75-6.59-3.17-6.93a68.4 68.4 0 00-11.36 0c-3.79.3-7.12 2.73-8 7.51h8.65c.37-.88.68-1.66 1-2.52H126c-.7 1.7-1.36 3.34-2.09 5.12-2.15-1.24-5-.92-7.74-.82a8.24 8.24 0 00-6.91 4.65c-.79 1.69-1.48 3.4-2.08 5.09-.87 2.44-.17 4 2 4.36a27.66 27.66 0 004.27.24 8.9 8.9 0 006.36-2.34c-.3.85-.56 1.55-.8 2.24h12.27c.7-1.73 1.37-3.36 2.06-5.05h-2.46c.24-.5.36-.8.48-1.1zm-11 1.19h-3.2l2-4.9h3.19c-.59 1.61-1.24 3.19-1.94 4.9zM110.39 29.47l2.93-7.16c-3.3.33-6.32-1-10.12 3.38.56-1.36.94-2.3 1.33-3.26H93.3l-2 5 2.29.13c-1.86 4.55-3.67 9-5.49 13.45l-2.47.13-2 5h16l2.05-5.14H98.6l4.72-11.55zM206.64 22.17c-.7 1.7-1.34 3.29-2 4.92l1.91.16-5.48 13.4h-3.23l7.53-18.45h-12.82c-.69 1.7-1.34 3.3-2 4.92l2.42.12c-.22.55-.42 1-.61 1.49-1.56 3.83-3.14 7.66-4.69 11.49-1.35 3.36-.77 4.91 2.27 5.45a26.58 26.58 0 004.55.2 7.89 7.89 0 005.12-1.66s-8.63 21.4-9.13 22.53h11.72c.75-1.7 17.14-43 17.81-44.63zM188.29 27.28c.72-1.74 1.36-3.33 2.07-5.05h-5c1.05-2.6 2.06-5.06 3.07-7.53-2.95-.08-8.95-.38-8.95-.38l-3.69 8h-3.58l-2 5c1 .05 2.12.14 3.07.18-.68 1.66-4.78 10.83-5.86 13.92-.91 2.58-.13 4.17 2.34 4.38 3.23.26 6.62.2 10 .26.41 0 .85 0 1.27-.06.71-1.75 1.38-3.37 2.1-5.15h-5.06c1.87-4.57 3.67-9 5.54-13.57zM30.71 22.43c-.16.06-7.21 0-10.36 0-2.7 4.75-5.52 17.34-8.52 14.28-2.2-1.94 7.75-22.53 13.09-27.12 0-.09.16-.1.2-.18a1.47 1.47 0 01.36 0c.11.09 0 .26-.06.31-.06.43-1.58 3.74-1.54 4.09a.06.06 0 01.06.06h10.65c.14-.06.2-.2.27-.34s5-12.92 5-13A.23.23 0 0039.6.3H29.23c-.05.11-.3.82-.4 1 0 0 0 .08-.1.07s-.26-.21-.33-.37-.21-.14-.3-.22C15.85-6.81-13.52 42.84 7.2 45.32a10.66 10.66 0 004.15-.54S2.76 66.29 2.71 66.33v.18a.18.18 0 01.09.1h11c0-.11.1-.32.16-.3l17-43.7c-.11-.1-.15-.17-.25-.18z" fill="#104432" fill-rule="evenodd"/>
  <path d="M39.54 54a3.45 3.45 0 01.63 2.08 3.07 3.07 0 01-.63 2 3.42 3.42 0 01-1 .78 3 3 0 011.57 1.2 3.6 3.6 0 01.53 2 4 4 0 01-.64 2.18 3.64 3.64 0 01-1 1.07 3.7 3.7 0 01-1.54.69 10.5 10.5 0 01-1.93.18h-6.11V52.55H36A4.2 4.2 0 0139.54 54zm-7.4.92v3h3.32a2.68 2.68 0 001.44-.33 1.29 1.29 0 00.55-1.2 1.22 1.22 0 00-.73-1.26 4.89 4.89 0 00-1.61-.21zm0 5.26v3.64h3.31a3.13 3.13 0 001.38-.25 1.7 1.7 0 00.9-1.7 1.48 1.48 0 00-.87-1.46 3.51 3.51 0 00-1.36-.23zM50.05 60.05a4.19 4.19 0 001.05-.23.78.78 0 00.57-.75.88.88 0 00-.43-.86A2.7 2.7 0 0050 58a1.68 1.68 0 00-1.34.46 1.87 1.87 0 00-.38.92H45.7a3.86 3.86 0 01.74-2.17A4.34 4.34 0 0150 55.86a6.47 6.47 0 013 .66A2.51 2.51 0 0154.29 59v5.79a1.44 1.44 0 00.16.7.93.93 0 00.38.3v.39H52a3.74 3.74 0 01-.17-.57c0-.18 0-.38-.07-.61a5.78 5.78 0 01-1.26 1 3.67 3.67 0 01-1.94.49 3.25 3.25 0 01-2.27-.78 2.76 2.76 0 01-.9-2.21 2.85 2.85 0 011.44-2.69 6.54 6.54 0 012.33-.65zm1.61 1.23a2.41 2.41 0 01-.51.25 4.38 4.38 0 01-.71.19l-.6.11a3.68 3.68 0 00-1.21.36 1.21 1.21 0 00-.63 1.12 1.19 1.19 0 00.38 1 1.4 1.4 0 00.92.3 2.78 2.78 0 001.6-.5 2.11 2.11 0 00.75-1.82zM67.94 56.68a3.35 3.35 0 011 2.71v6.79h-2.7v-6.13a2.83 2.83 0 00-.24-1.22 1.51 1.51 0 00-1.47-.78 1.83 1.83 0 00-1.83 1.14 4 4 0 00-.26 1.54v5.45h-2.61V56.12h2.55v1.47a4.67 4.67 0 011-1.12 3.34 3.34 0 012-.61 3.86 3.86 0 012.56.82zM74.57 52.6h2.59V60l3.33-3.8h3.27l-3.61 3.76 3.75 6.27h-3.2l-2.45-4.3L77.16 63v3.17h-2.59zM97.24 60.48a6.79 6.79 0 012-1.74l.29-.17a5.77 5.77 0 01-.92-1.37 3.4 3.4 0 01-.32-1.44 2.86 2.86 0 011-2.33 4 4 0 012.62-.84 3.54 3.54 0 012.43.86 2.83 2.83 0 011 2.19 3.12 3.12 0 01-.58 2A5.41 5.41 0 01103 59l2 2.38a3.68 3.68 0 00.52-1 4 4 0 00.19-1.19h2.34a7.32 7.32 0 01-.6 2.52 7 7 0 01-1 1.57l2.48 3h-3.19l-1-1.16a6 6 0 01-1.29 1 5.24 5.24 0 01-2.46.55 4.32 4.32 0 01-3.27-1.22 3.82 3.82 0 01-1.18-2.71 3.59 3.59 0 01.7-2.26zm2.58 3.27a1.92 1.92 0 001.43.56 2.71 2.71 0 001.25-.3 3.91 3.91 0 001-.66l-2.55-3.1a4.72 4.72 0 00-1.33 1.15 2 2 0 00-.32 1.1 1.73 1.73 0 00.56 1.25zm1.16-7.3a9.78 9.78 0 00.75.95 5.16 5.16 0 00.82-.66 1.52 1.52 0 00.48-1.08 1.13 1.13 0 00-.29-.76 1.08 1.08 0 00-.87-.34 1.26 1.26 0 00-.68.2 1 1 0 00-.48.91 1.39 1.39 0 00.27.78zM132.34 52.55V55h-4.08v11.18h-2.87V55h-4.1v-2.45zM141.57 55.87h.23v2.7h-.8a2.19 2.19 0 00-2.14 1 4.09 4.09 0 00-.3 1.8v4.82H136V56.1h2.51v1.76a5.5 5.5 0 011.07-1.38 2.88 2.88 0 011.92-.62zM149.19 56.1v6.08a3 3 0 00.2 1.29 1.38 1.38 0 001.4.77 1.82 1.82 0 001.84-1.09 4 4 0 00.26-1.56V56.1h2.67v10.09H153v-1.43l-.18.28a2.3 2.3 0 01-.35.41 3.74 3.74 0 01-1.2.75 3.85 3.85 0 01-1.35.2 3 3 0 01-3-1.6 6.19 6.19 0 01-.44-2.62V56.1zM163.39 63a1.76 1.76 0 00.36 1 2.43 2.43 0 001.83.53 2.79 2.79 0 001.24-.23.74.74 0 00.46-.69.75.75 0 00-.37-.68 15.57 15.57 0 00-2.76-.8 5.67 5.67 0 01-2.42-1.13 2.29 2.29 0 01-.7-1.81 3.15 3.15 0 011.1-2.4 4.34 4.34 0 013.09-1 5.62 5.62 0 013.08.75 3.21 3.21 0 011.37 2.6H167a1.67 1.67 0 00-.28-.81 1.84 1.84 0 00-1.49-.53 2.12 2.12 0 00-1.23.27.76.76 0 00-.36.63.68.68 0 00.39.65 16.14 16.14 0 002.75.73 5.12 5.12 0 012.36 1.12 2.57 2.57 0 01.78 1.9 3.08 3.08 0 01-1.12 2.45 6.72 6.72 0 01-7 0 3.26 3.26 0 01-1.07-2.55zM174.07 58.07v-1.88h1.4v-2.81h2.61v2.81h1.64v1.88h-1.64v5.33a1.15 1.15 0 00.16.77 1.67 1.67 0 001 .15h.52v2h-1.25a3.31 3.31 0 01-2.55-.64 1.94 1.94 0 01-.45-1.4v-6.21z" fill="#003525"/>
</svg>
