<?xml version="1.0" encoding="UTF-8"?>
<svg xmlns="http://www.w3.org/2000/svg" xmlns:xlink="http://www.w3.org/1999/xlink" xmlns:svgjs="http://svgjs.com/svgjs" version="1.1" width="512" height="512" x="0" y="0" viewBox="0 0 512 512" style="enable-background:new 0 0 512 512" xml:space="preserve" class="">
  <g>
<g xmlns="http://www.w3.org/2000/svg">
	<g>
		<path d="M448.785,167.356h-36.907V94.727c0-12.437-4.946-24.029-13.04-32.504L374.99,37.269    c-20.238-20.852-22.792-26.743-34.846-32.594C334.544,1.88,327.165,0,319.725,0H145.533c-25.949,0-47.052,21.113-47.052,47.052    V300.79h-9.923c-14.97,0-27.145,12.175-27.145,27.145c0,7.45,3.016,14.196,7.882,19.102c-4.866,4.906-7.882,11.652-7.882,19.102    c0,2.795,0.392,4.454,0.533,5.369C3.04,377.5-20.426,450.41,22.685,489.982c13.02,11.954,30.302,18.73,49.042,17.966    c6.193,0,133.695-0.05,133.856-0.05c14.96,0,27.145-12.175,27.145-27.145c0-7.45-3.016-14.196-7.882-19.102    c4.575-4.615,7.51-10.838,7.842-17.755h10.185v5.439c0,34.555,28.11,62.665,62.665,62.665h143.247    c34.555,0,62.665-28.11,62.665-62.665V230.021C511.451,195.466,483.34,167.356,448.785,167.356z M384.753,70.779    c0,0,0.01,0,0.02,0.02c0.01,0,0.01,0,0.01,0c0.01,0.02,0.03,0.04,0.04,0.05l0.01,0.01c0.02,0.03,0.04,0.05,0.06,0.06    c0.01,0.01,0.02,0.02,0.03,0.04c0.01,0.01,0.02,0.01,0.02,0.02c0.01,0.01,0.02,0.01,0.03,0.03c0.02,0.01,0.03,0.03,0.04,0.04    h-40.306V28.442C376.298,61.831,383.416,69.361,384.753,70.779z M88.558,316.876h117.026c6.093,0,11.059,4.967,11.059,11.059    c0,6.103-4.967,11.059-11.059,11.059H88.558c-6.093,0-11.059-4.956-11.059-11.059C77.498,321.842,82.465,316.876,88.558,316.876z     M88.558,355.08h117.026c6.093,0,11.059,4.967,11.059,11.059c0,6.103-4.967,11.059-11.059,11.059h-80.833    c-3.288-1.508-6.696-2.735-10.185-3.68c-5.208-1.418-10.597-2.222-16.086-2.363c-1.578-0.04-3.157-0.03-4.735,0.04h-15.01    c-0.794-1.518-1.237-3.237-1.237-5.057C77.498,360.047,82.465,355.08,88.558,355.08z M216.643,404.344    c0,6.103-4.967,11.059-11.059,11.059h-45.011c-3.056-8.134-7.661-15.624-13.653-22.118h58.664    C211.676,393.285,216.643,398.251,216.643,404.344z M49.428,389.907c-4.896,4.645-9.25,10.164-12.668,16.247h-9.37    C33.513,398.563,41.124,393.164,49.428,389.907z M18.834,421.234h11.713c-0.261,1.126-1.589,5.459-2.192,12.055H15.979    C16.462,429.147,17.417,425.105,18.834,421.234z M20.131,461.098c-1.779-4.042-3.056-8.314-3.78-12.728h12.286    c2.202,12.487,2.322,10.335,2.875,12.728H20.131z M30.165,476.178c4.936-0.01,7.802,0.02,8.475-0.02    c3.006,4.745,6.625,9.139,10.818,13.09C42.169,486.383,35.685,482.01,30.165,476.178z M98.792,492.878    c-29.427,1.267-54.341-21.525-55.588-51.023c-2.021-46.961,54.069-74.006,89.388-41.583    C167.41,432.233,146.216,490.927,98.792,492.878z M205.584,491.812h-64.917c7.188-6.083,13.09-13.613,17.282-22.118h47.635    c6.093,0,11.059,4.967,11.059,11.059C216.643,486.855,211.676,491.812,205.584,491.812z M216.553,443.896    c-0.664,5.469-5.329,9.712-10.969,9.712h-42.085c1.458-6.977,1.87-14.498,0.975-22.118h41.11    C212.36,431.489,217.417,437.552,216.553,443.896z M242.873,427.809h-14.518c-1.015-1.578-2.192-3.036-3.509-4.363    c10.506-10.597,10.516-27.608,0-38.204c4.866-4.906,7.882-11.652,7.882-19.102c0-7.45-3.016-14.196-7.882-19.102    c16.91-17.051,4.826-46.247-19.263-46.247h-91.017V47.052c0-17.071,13.894-30.966,30.966-30.966h183.09v63.007    c0,4.444,3.599,8.043,8.043,8.043h58.171c1.679,6.515,0.643,4.363,0.955,80.219h-90.253c-34.555,0-62.665,28.11-62.665,62.665    V427.809z M496.37,449.335c0,26.24-21.344,47.585-47.585,47.585H305.539c-26.23,0-47.585-21.344-47.585-47.585V230.021    c0-26.24,21.354-47.585,47.585-47.585h143.247c26.24,0,47.585,21.344,47.585,47.585V449.335z" fill="#fff2f2" data-original="#000000" class=""/>
	</g>
</g>
<g xmlns="http://www.w3.org/2000/svg">
	<g>
		<path d="M448.253,199.538H306.072c-13.981,0-25.315,11.334-25.315,25.315v27.598c0,13.981,11.334,25.315,25.315,25.315h27.356    c4.164,0,7.54-3.376,7.54-7.54s-3.376-7.54-7.54-7.54h-27.356c-5.629,0-10.235-4.606-10.235-10.235v-27.598    c0-5.629,4.606-10.235,10.235-10.235h142.181c5.65,0,10.235,4.595,10.235,10.235v27.598c0,5.64-4.585,10.235-10.235,10.235h-82.31    c-4.164,0-7.54,3.376-7.54,7.54s3.376,7.54,7.54,7.54h82.31c13.965,0,25.315-11.361,25.315-25.315v-27.598    C473.568,210.899,462.217,199.538,448.253,199.538z" fill="#fff2f2" data-original="#000000" class=""/>
	</g>
</g>
<g xmlns="http://www.w3.org/2000/svg">
	<g>
		<path d="M322.309,358.428h-25.768c-8.697,0-15.784,7.078-15.784,15.784v25.758c0,8.707,7.088,15.784,15.784,15.784h25.768    c8.707,0,15.784-7.078,15.784-15.784v-25.758C338.093,365.506,331.015,358.428,322.309,358.428z M323.012,399.97    c0,0.392-0.322,0.704-0.704,0.704h-25.768c-0.382,0-0.704-0.312-0.704-0.704v-25.758c0-0.392,0.322-0.704,0.704-0.704h25.768    c0.382,0,0.704,0.312,0.704,0.704V399.97z" fill="#fff2f2" data-original="#000000" class=""/>
	</g>
</g>
<g xmlns="http://www.w3.org/2000/svg">
	<g>
		<path d="M458.598,291.068H432.84c-8.707,0-15.784,7.078-15.784,15.784v25.758c0,8.707,7.078,15.784,15.784,15.784h25.758    c8.707,0,15.784-7.078,15.784-15.784v-25.758C474.382,298.146,467.304,291.068,458.598,291.068z M459.302,332.61    c0,0.392-0.312,0.704-0.704,0.704H432.84c-0.382,0-0.704-0.312-0.704-0.704c0.312-25.486-0.654-26.462,0.704-26.462h25.758    c0.392,0,0.704,0.312,0.704,0.704V332.61z" fill="#fff2f2" data-original="#000000" class=""/>
	</g>
</g>
<g xmlns="http://www.w3.org/2000/svg">
	<g>
		<path d="M322.309,291.068h-25.768c-8.697,0-15.784,7.078-15.784,15.784v25.758c0,8.707,7.088,15.784,15.784,15.784h25.768    c8.707,0,15.784-7.078,15.784-15.784v-25.758C338.093,298.146,331.015,291.068,322.309,291.068z M323.012,332.61    c0,0.392-0.322,0.704-0.704,0.704h-25.768c-0.382,0-0.704-0.312-0.704-0.704v-25.758c0-0.392,0.322-0.704,0.704-0.704h25.768    c0.382,0,0.704,0.312,0.704,0.704V332.61z" fill="#fff2f2" data-original="#000000" class=""/>
	</g>
</g>
<g xmlns="http://www.w3.org/2000/svg">
	<g>
		<path d="M334.122,427.809c-2.896-3.257-7.118-5.318-11.813-5.318h-25.768c-4.695,0-8.918,2.061-11.803,5.318    c-5.479,6.143-3.619,12.839-3.981,16.086v20.138c0,8.707,7.088,15.784,15.784,15.784h25.768c8.707,0,15.784-7.078,15.784-15.784    v-20.138C337.731,440.719,339.571,433.952,334.122,427.809z M322.309,464.737c-25.456-0.312-26.472,0.654-26.472-0.704    c0-27.276-0.302-26.462,0.704-26.462h25.768c1.237,0,0.473,1.719,0.704,6.324C323.012,443.896,323.666,464.737,322.309,464.737z" fill="#fff2f2" data-original="#000000" class=""/>
	</g>
</g>
<g xmlns="http://www.w3.org/2000/svg">
	<g>
		<path d="M454.596,358.428h-17.755c-10.908,0-19.786,8.878-19.786,19.786v79.998c0,11.914,9.692,21.606,21.596,21.606h14.136    c11.914,0,21.596-9.692,21.596-21.606v-79.998C474.382,367.306,465.515,358.428,454.596,358.428z M452.787,464.737h-14.136    c-3.589,0-6.515-2.926-6.515-6.525v-79.998c0-2.594,2.111-4.705,4.705-4.705h17.755c2.594,0,4.705,2.111,4.705,4.705v79.998h0    C459.302,461.811,456.386,464.737,452.787,464.737z" fill="#fff2f2" data-original="#000000" class=""/>
	</g>
</g>
<g xmlns="http://www.w3.org/2000/svg">
	<g>
		<path d="M194.647,219.028c-9.194-3.378-15.836-5.818-15.836-14.336c0-7.763,5.156-11.699,15.323-11.699    c10.793,0,13.699,4.751,17.501,4.751c4.138,0,6.427-4.391,6.427-7.428c0-6.282-10.247-9.397-19.407-10.219v-5.664    c0-3.94-3.205-7.145-7.145-7.145c-3.94,0-7.145,3.205-7.145,7.145V181c-12.525,2.974-19.407,11.625-19.407,24.443    c0,17.55,12.92,22.405,23.304,26.308c10.166,3.82,18.197,6.838,18.197,18.445c0,9.587-5.323,14.448-15.824,14.448    c-15.368,0-15.512-10.376-21.374-10.376c-3.63,0-6.554,4.064-6.554,7.428c0,5.942,8.849,13.752,21.658,15.779v5.473    c0,3.94,3.205,7.145,7.145,7.145s7.145-3.205,7.145-7.145v-5.62c13.778-2.593,21.658-12.71,21.658-27.883    C220.312,228.458,206.082,223.23,194.647,219.028z" fill="#fff2f2" data-original="#000000" class=""/>
	</g>
</g>
<g xmlns="http://www.w3.org/2000/svg">
	<g>
		<path d="M400.99,426.915c-2.835-2.735-6.696-4.424-10.939-4.424h-25.768c-4.695,0-8.918,2.061-11.813,5.318    c-5.459,6.153-3.609,12.839-3.971,16.086v20.138c0,8.707,7.078,15.784,15.784,15.784h25.768c8.697,0,15.774-7.078,15.774-15.784    v-25.768C405.825,433.812,403.965,429.78,400.99,426.915z M390.051,464.737c-25.456-0.312-26.472,0.654-26.472-0.704v-25.768    c0-0.382,0.322-0.694,0.704-0.694h25.768c0.382,0,0.694,0.312,0.694,0.694C390.443,463.782,391.388,464.737,390.051,464.737z" fill="#fff2f2" data-original="#000000" class=""/>
	</g>
</g>
<g xmlns="http://www.w3.org/2000/svg">
	<g>
		<path d="M390.051,291.068h-25.768c-8.707,0-15.784,7.078-15.784,15.784v25.758c0,8.707,7.078,15.784,15.784,15.784h25.768    c2.031,0,3.961-0.382,5.741-1.086c5.871-2.302,10.034-8.023,10.034-14.699v-25.758    C405.825,298.115,398.707,291.068,390.051,291.068z M390.051,333.314h-25.768c-0.382,0-0.704-0.312-0.704-0.704v-25.758    c0-1.357,0.935-0.402,26.472-0.704c0.382,0,0.694,0.312,0.694,0.704v25.758h0C390.745,333.002,390.433,333.314,390.051,333.314z" fill="#fff2f2" data-original="#000000" class=""/>
	</g>
</g>
<g xmlns="http://www.w3.org/2000/svg">
	<g>
		<path d="M395.792,359.514c-1.779-0.704-3.71-1.086-5.741-1.086h-25.768c-8.707,0-15.784,7.078-15.784,15.784v25.758    c0,8.707,7.078,15.784,15.784,15.784h25.768c8.697,0,15.774-7.078,15.774-15.784v-25.758    C405.825,367.537,401.663,361.816,395.792,359.514z M390.745,399.97c0,0.392-0.312,0.704-0.694,0.704h-25.768    c-0.382,0-0.704-0.312-0.704-0.704v-25.758c0-0.392,0.322-0.704,0.704-0.704h25.768c0.382,0,0.694,0.312,0.694,0.704V399.97z" fill="#fff2f2" data-original="#000000" class=""/>
	</g>
</g>
<g xmlns="http://www.w3.org/2000/svg">
	<g>
		<path d="M346.528,103.041h-18.941c-4.162,0-7.54,3.378-7.54,7.54c0,4.172,3.378,7.54,7.54,7.54h18.941    c4.162,0,7.54-3.368,7.54-7.54C354.069,106.419,350.69,103.041,346.528,103.041z" fill="#fff2f2" data-original="#000000" class=""/>
	</g>
</g>
<g xmlns="http://www.w3.org/2000/svg">
	<g>
		<path d="M297.425,103.041H163.71c-4.162,0-7.54,3.378-7.54,7.54c0,4.172,3.378,7.54,7.54,7.54h133.716    c4.162,0,7.54-3.368,7.54-7.54C304.966,106.419,301.588,103.041,297.425,103.041z" fill="#fff2f2" data-original="#000000" class=""/>
	</g>
</g>
<g xmlns="http://www.w3.org/2000/svg">
	<g>
		<path d="M187.678,140.472H163.71c-4.162,0-7.54,3.378-7.54,7.54c0,4.162,3.378,7.54,7.54,7.54h23.968    c4.162,0,7.54-3.378,7.54-7.54C195.218,143.85,191.84,140.472,187.678,140.472z" fill="#fff2f2" data-original="#000000" class=""/>
	</g>
</g>
<g xmlns="http://www.w3.org/2000/svg">
	<g>
		<path d="M346.528,140.472H217.839c-4.162,0-7.54,3.378-7.54,7.54c0,4.162,3.378,7.54,7.54,7.54h128.689    c4.162,0,7.54-3.378,7.54-7.54C354.069,143.85,350.69,140.472,346.528,140.472z" fill="#fff2f2" data-original="#000000" class=""/>
	</g>
</g>
<g xmlns="http://www.w3.org/2000/svg">
	<g>
		<path d="M92.233,425.159c0-1.895,0.698-2.439,1.351-2.801c2.026-1.121,6.674-1.451,10.932,0.739    c1.131,0.581,2.413,1.24,4.081,1.24c7.437,0,13.319-13.819-4.446-16.874v-0.475c0-4.213-3.428-7.641-7.641-7.641    c-4.213,0-7.641,3.428-7.641,7.641v1.45c-7.444,2.7-11.655,8.839-11.655,17.172c0,12.86,9.343,16.371,16.167,18.934    c6.507,2.445,8.757,3.515,8.757,7.941c0,2.767-0.745,5.328-6.154,5.328c-7.882,0-6.938-6.23-12.837-6.23    c-4.169,0-7.286,4.123-7.286,7.81c0,5.224,5.432,10.182,13.008,12.192v0.572c0,4.213,3.428,7.641,7.641,7.641    c4.213,0,7.641-3.427,7.641-7.641v-0.772c8.198-2.635,13.007-9.694,13.007-19.35C117.158,429.122,92.233,432.563,92.233,425.159z" fill="#fff2f2" data-original="#000000" class=""/>
	</g>
</g>















</g>
</svg>
