<?xml version="1.0" encoding="UTF-8"?>
<svg xmlns="http://www.w3.org/2000/svg" xmlns:xlink="http://www.w3.org/1999/xlink" xmlns:svgjs="http://svgjs.com/svgjs" version="1.1" width="512" height="512" x="0" y="0" viewBox="0 0 32 32" style="enable-background:new 0 0 512 512" xml:space="preserve">
  <g>
    <g xmlns="http://www.w3.org/2000/svg" id="Layer_1" fill="rgb(0,0,0)">
      <path d="m29 8h-26c-1.1045 0-2-.8955-2-2s.8955-2 2-2h26c1.1045 0 2 .8955 2 2s-.8955 2-2 2z" fill="#000000" data-original="#000000"/>
      <path d="m29 28h-26c-1.1045 0-2-.8955-2-2s.8955-2 2-2h26c1.1045 0 2 .8955 2 2s-.8955 2-2 2z" fill="#000000" data-original="#000000"/>
      <path d="m29 18h-26c-1.1045 0-2-.8955-2-2s.8955-2 2-2h26c1.1045 0 2 .8955 2 2s-.8955 2-2 2z" fill="#000000" data-original="#000000"/>
    </g>
  </g>
</svg>
