<?xml version="1.0" encoding="UTF-8"?>
<svg xmlns="http://www.w3.org/2000/svg" xmlns:xlink="http://www.w3.org/1999/xlink" xmlns:svgjs="http://svgjs.com/svgjs" version="1.1" width="512" height="512" x="0" y="0" viewBox="0 0 513 513" style="enable-background:new 0 0 512 512" xml:space="preserve">
  <g>
    <path xmlns="http://www.w3.org/2000/svg" d="m445.953 132.728c36.418 0 66.047-29.628 66.047-66.047s-29.628-66.047-66.047-66.047c-36.418 0-66.047 29.629-66.047 66.047s29.629 66.047 66.047 66.047zm0-102.095c19.877 0 36.047 16.171 36.047 36.048 0 19.876-16.17 36.047-36.047 36.047-19.876 0-36.047-16.17-36.047-36.047s16.171-36.048 36.047-36.048z" fill="#ffffff" data-original="#000000"/>
    <path xmlns="http://www.w3.org/2000/svg" d="m498 482.367h-10.717v-133.874c2.815 2.398 6.267 3.588 9.712 3.588 4.141 0 8.263-1.705 11.227-5.046 5.498-6.197 4.93-15.678-1.267-21.175l-43.972-39.007v-77.739c0-8.284-6.716-15-15-15s-15 6.716-15 15v51.126l-78.658-69.777v-77.635c0-61.782-50.263-112.045-112.045-112.045s-112.045 50.263-112.045 112.045v32.581c-16.42-30.616-32.253-52.248-33.623-54.103-2.828-3.828-7.305-6.086-12.064-6.086s-9.236 2.259-12.064 6.086c-2.92 3.953-71.517 97.709-71.517 176.858 0 38.631 7.704 75.186 21.693 102.93 12.34 24.474 28.634 40.26 46.888 45.83v65.442h-54.548c-8.284 0-15 6.716-15 15s6.716 15 15 15h483c8.284 0 15-6.716 15-15 0-8.283-6.716-14.999-15-14.999zm-240.042 0h-30v-111.426h30zm15-141.426h-60c-8.284 0-15 6.716-15 15v126.426h-30v-160.467l144.662-128.329 144.663 128.329v160.467h-169.325v-126.426c0-8.284-6.715-15-15-15zm-112.724-228.113c0-45.24 36.805-82.045 82.045-82.045s82.045 36.805 82.045 82.045v51.022l-1.749-1.552c-5.68-5.038-14.229-5.038-19.908 0l-46.143 40.933v-79.75c0-8.284-6.716-15-15-15s-15 6.716-15 15v45.719l-9.996-10.096c-5.829-5.887-15.325-5.934-21.213-.105-5.887 5.829-5.934 15.326-.105 21.213l31.314 31.628v18.005l-47.555 42.185c-4.527-5.793-8.853-12.262-11.527-17.887-1.152-12.259-3.712-24.713-7.208-36.998zm-110.789 244.76c-11.917-23.635-18.481-55.393-18.481-89.423 0-50.533 34.632-111.56 53.589-141.178 13.469 21.02 34.824 57.868 46.072 95.599.137.599.315 1.182.522 1.752 4.287 14.81 6.98 29.719 6.98 43.828 0 15.102-1.299 29.751-3.778 43.447l-16.062 14.248c-6.197 5.497-6.765 14.978-1.267 21.175 1.613 1.818 3.574 3.138 5.69 3.976-.982 2.248-1.993 4.456-3.063 6.577-10.123 20.077-22.917 31.591-35.101 31.591s-24.978-11.515-35.101-31.592zm50.101 59.337c14.336-4.375 27.46-15.057 38.412-31.297v96.738h-38.412z" fill="#ffffff" data-original="#000000"/>
    <path xmlns="http://www.w3.org/2000/svg" d="m335.098 443.429h72.488c8.284 0 15-6.716 15-15v-72.488c0-8.284-6.716-15-15-15h-72.488c-8.284 0-15 6.716-15 15v72.488c0 8.284 6.716 15 15 15zm15-72.488h42.488v42.488h-42.488z" fill="#ffffff" data-original="#000000"/>
  </g>
</svg>
