<?xml version="1.0" encoding="UTF-8"?>
<svg xmlns="http://www.w3.org/2000/svg" xmlns:xlink="http://www.w3.org/1999/xlink" xmlns:svgjs="http://svgjs.com/svgjs" version="1.1" width="512" height="512" x="0" y="0" viewBox="0 0 512 512" style="enable-background:new 0 0 512 512" xml:space="preserve" class="">
  <g>
    <g xmlns="http://www.w3.org/2000/svg" id="OUTLINE">
      <path d="m472 16h-432a24.0275 24.0275 0 0 0 -24 24v344a24.0275 24.0275 0 0 0 24 24h157.52588l-19.63623 72h-17.88965v16h192v-16h-17.88965l-19.63623-72h157.52588a24.0275 24.0275 0 0 0 24-24v-344a24.0275 24.0275 0 0 0 -24-24zm-154.47412 464h-123.05176l19.63623-72h83.7793zm162.47412-96a8.00917 8.00917 0 0 1 -8 8h-432a8.00917 8.00917 0 0 1 -8-8v-32h448zm-303.439-107.67383 11.76513-11.76562 24.07276 9.57617 25.05468-10.38086 10.22661-23.75586h16.63964l10.22657 23.75586 25.05468 10.38086 24.07276-9.57617 11.76562 11.76562-9.57715 24.07227 10.38233 25.05566 23.75537 10.22656v.31934h-40.51782a63.982 63.982 0 0 0 -126.96436 0h-40.51782v-.31934l23.75537-10.22656 10.38233-25.05566zm126.75956 59.67383h-94.64112a47.99044 47.99044 0 0 1 94.64112 0zm176.67944 0h-104v-10.85059l-27.46143-11.82226-5.40771-13.05176 11.06738-27.81839-26.65576-26.6543-27.81836 11.06641-13.05078-5.4082-11.82227-27.46091h-37.70214l-11.82227 27.46094-13.05078 5.4082-27.81788-11.06641-26.65575 26.65427 11.06689 27.81836-5.40771 13.05176-27.46143 11.82229v10.85059h-104v-296a8.00917 8.00917 0 0 1 8-8h432a8.00917 8.00917 0 0 1 8 8z" fill="#ffffff" data-original="#000000" class=""/>
      <path d="m440 136a88 88 0 1 0 -88 88h8v-80h80zm-96 71.55859a71.94253 71.94253 0 0 1 -48.2196-116.46435l48.2196 48.21976zm11.314-79.55859-48.2196-48.21973a71.94256 71.94256 0 0 1 116.46419 48.21973z" fill="#ffffff" data-original="#000000" class=""/>
      <path d="m376 240h9a71.08057 71.08057 0 0 0 71-71v-9h-80zm16-64h47.55664a55.1175 55.1175 0 0 1 -47.55664 47.55664z" fill="#ffffff" data-original="#000000" class=""/>
      <path d="m224 48h-144a24.0275 24.0275 0 0 0 -24 24v112a24.0275 24.0275 0 0 0 24 24h144a24.0275 24.0275 0 0 0 24-24v-112a24.0275 24.0275 0 0 0 -24-24zm8 136a8.00917 8.00917 0 0 1 -8 8h-144a8.00917 8.00917 0 0 1 -8-8v-88h160zm0-104h-160v-8a8.00917 8.00917 0 0 1 8-8h144a8.00917 8.00917 0 0 1 8 8z" fill="#ffffff" data-original="#000000" class=""/>
      <path d="m56 232h96v16h-96z" fill="#ffffff" data-original="#000000" class=""/>
      <path d="m56 264h72v16h-72z" fill="#ffffff" data-original="#000000" class=""/>
      <path d="m56 296h72v16h-72z" fill="#ffffff" data-original="#000000" class=""/>
      <path d="m376 264h80v16h-80z" fill="#ffffff" data-original="#000000" class=""/>
      <path d="m376 296h80v16h-80z" fill="#ffffff" data-original="#000000" class=""/>
      <path d="m125.657 162.343-18.344-18.343 18.344-18.343-11.314-11.314-29.656 29.657 29.656 29.657z" fill="#ffffff" data-original="#000000" class=""/>
      <path d="m130.459 140h43.081v16h-43.081z" transform="matrix(.371 -.928 .928 .371 -41.862 234.171)" fill="#ffffff" data-original="#000000" class=""/>
      <path d="m189.657 173.657 29.656-29.657-29.656-29.657-11.314 11.314 18.344 18.343-18.344 18.343z" fill="#ffffff" data-original="#000000" class=""/>
    </g>
  </g>
</svg>
